<svg width="186" height="51" viewBox="0 0 186 51" fill="none" xmlns="http://www.w3.org/2000/svg">
<rect width="186" height="51" rx="20" fill="url(#paint0_linear_1107_80)"/>
<path d="M31.1139 17.2149V21.2949H36.6099V24.2949H31.1139V28.4589H38.2899V31.5789H27.0339V14.0949H38.2899V17.2149H31.1139ZM56.0557 14.0949V31.5789H53.9437C53.6317 31.5789 53.3677 31.5309 53.1517 31.4349C52.9437 31.3309 52.7357 31.1549 52.5277 30.9069L44.2837 20.4789C44.3157 20.7909 44.3357 21.0949 44.3437 21.3909C44.3597 21.6789 44.3677 21.9509 44.3677 22.2069V31.5789H40.7917V14.0949H42.9277C43.1037 14.0949 43.2517 14.1029 43.3717 14.1189C43.4917 14.1349 43.5997 14.1669 43.6957 14.2149C43.7917 14.2549 43.8837 14.3149 43.9717 14.3949C44.0597 14.4749 44.1597 14.5829 44.2717 14.7189L52.5877 25.2189C52.5477 24.8829 52.5197 24.5589 52.5037 24.2469C52.4877 23.9269 52.4797 23.6269 52.4797 23.3469V14.0949H56.0557ZM72.012 17.3109H67.092V31.5789H63.036V17.3109H58.116V14.0949H72.012V17.3109ZM78.153 17.2149V21.2949H83.649V24.2949H78.153V28.4589H85.329V31.5789H74.073V14.0949H85.329V17.2149H78.153ZM93.5188 22.3149C94.0708 22.3149 94.5388 22.2469 94.9228 22.1109C95.3148 21.9669 95.6348 21.7709 95.8828 21.5229C96.1308 21.2749 96.3108 20.9869 96.4228 20.6589C96.5348 20.3229 96.5908 19.9629 96.5908 19.5789C96.5908 18.8109 96.3388 18.2109 95.8348 17.7789C95.3388 17.3469 94.5668 17.1309 93.5188 17.1309H91.8868V22.3149H93.5188ZM102.135 31.5789H98.4628C97.7828 31.5789 97.2948 31.3229 96.9988 30.8109L94.0948 25.7349C93.9588 25.5189 93.8068 25.3629 93.6388 25.2669C93.4708 25.1629 93.2308 25.1109 92.9188 25.1109H91.8868V31.5789H87.8308V14.0949H93.5188C94.7828 14.0949 95.8588 14.2269 96.7468 14.4909C97.6428 14.7469 98.3708 15.1069 98.9308 15.5709C99.4988 16.0349 99.9108 16.5829 100.167 17.2149C100.423 17.8469 100.551 18.5349 100.551 19.2789C100.551 19.8469 100.475 20.3829 100.323 20.8869C100.171 21.3909 99.9468 21.8589 99.6508 22.2909C99.3548 22.7149 98.9868 23.0949 98.5468 23.4309C98.1148 23.7669 97.6148 24.0429 97.0468 24.2589C97.3108 24.3949 97.5588 24.5669 97.7908 24.7749C98.0228 24.9749 98.2308 25.2149 98.4148 25.4949L102.135 31.5789Z" fill="black"/>
<path d="M137.258 3.78249C129.326 4.72384 122.294 8.31273 117.76 13.7255C116.174 15.6278 114.638 18.5499 113.976 20.9327C113.539 22.482 113.164 25.2472 113.389 25.2472C113.439 25.2472 113.988 25.0707 114.6 24.8452C119.621 23.0115 126.741 21.3151 132.187 20.6385C133.086 20.5306 133.923 20.4228 134.06 20.3934C134.223 20.3639 134.385 20.1874 134.522 19.8835C135.347 18.0694 137.745 16.2554 140.205 15.5886C144.752 14.3432 149.748 16.0004 151.822 19.4226C152.359 20.3247 152.371 20.3247 152.896 20.3934C158.791 21.0994 164.237 22.2663 169.445 23.943C169.645 24.0117 169.645 23.6979 169.395 22.4133C168.696 18.6676 166.61 14.8728 163.737 12.0585C159.028 7.44002 152.808 4.60617 145.576 3.77269C143.353 3.50793 139.469 3.51774 137.258 3.78249Z" fill="#232323"/>
<path d="M141.554 18.5597C139.806 19.05 138.519 20.158 138.045 21.57C137.383 23.4821 138.682 25.561 141.08 26.4533C141.879 26.7474 142.017 26.7671 143.316 26.7671C144.652 26.7671 144.714 26.7573 145.639 26.3944C147.25 25.7767 148.349 24.6294 148.649 23.2468C149.036 21.4818 147.8 19.6383 145.664 18.7754C144.864 18.4616 144.714 18.4322 143.49 18.4028C142.466 18.3832 142.042 18.4224 141.554 18.5597Z" fill="#232323"/>
<path d="M132.387 25.306C126.516 26.1395 120.596 27.6692 115.45 29.6793C114.625 30.0029 113.938 30.2873 113.913 30.2971C113.888 30.3167 114.013 30.758 114.201 31.2875C116.286 37.2788 121.345 42.2601 128.377 45.2214C131.025 46.3392 134.397 47.2021 137.558 47.565C139.606 47.8003 143.515 47.8003 145.489 47.565C150.622 46.9472 155.306 45.3489 159.228 42.868C163.313 40.2793 166.648 36.4943 168.284 32.572C168.833 31.2384 169.396 29.3263 169.296 29.1204C169.233 28.9929 166.872 28.1987 164.549 27.5417C161.389 26.6298 157.792 25.8747 154.257 25.355C153.133 25.1883 152.196 25.051 152.171 25.051C152.159 25.051 151.934 25.3844 151.684 25.7963C150.585 27.6103 148.462 29.0322 145.926 29.6597C144.59 29.9931 142.479 30.0421 141.117 29.7676C138.369 29.2283 136.121 27.8359 134.835 25.8649C134.547 25.4138 134.26 25.051 134.185 25.0608C134.123 25.0608 133.311 25.1785 132.387 25.306Z" fill="#232323"/>
<defs>
<linearGradient id="paint0_linear_1107_80" x1="0" y1="25.5" x2="186" y2="25.5" gradientUnits="userSpaceOnUse">
<stop stop-color="#EDB600"/>
<stop offset="0.635" stop-color="#8C6C00"/>
<stop offset="1" stop-color="#876800"/>
</linearGradient>
</defs>
</svg>
