<svg width="385" height="101" viewBox="0 0 385 101" fill="none" xmlns="http://www.w3.org/2000/svg">
<rect width="385" height="30" rx="5" fill="url(#paint0_linear_46_2)"/>
<path d="M7.82955 24H5.61364L12.0227 6.54545H14.2045L20.6136 24H18.3977L13.1818 9.30682H13.0455L7.82955 24ZM8.64773 17.1818H17.5795V19.0568H8.64773V17.1818ZM27.9325 10.9091V12.6136H21.1484V10.9091H27.9325ZM23.1257 7.77273H25.1371V20.25C25.1371 20.8182 25.2195 21.2443 25.3842 21.5284C25.5547 21.8068 25.7706 21.9943 26.032 22.0909C26.299 22.1818 26.5803 22.2273 26.8757 22.2273C27.0973 22.2273 27.2791 22.2159 27.4212 22.1932C27.5632 22.1648 27.6768 22.142 27.7621 22.125L28.1712 23.9318C28.0348 23.983 27.8445 24.0341 27.6001 24.0852C27.3558 24.142 27.0462 24.1705 26.6712 24.1705C26.103 24.1705 25.5462 24.0483 25.0007 23.804C24.4609 23.5597 24.0121 23.1875 23.6541 22.6875C23.3018 22.1875 23.1257 21.5568 23.1257 20.7955V7.77273ZM36.6513 10.9091V12.6136H29.8672V10.9091H36.6513ZM31.8445 7.77273H33.8558V20.25C33.8558 20.8182 33.9382 21.2443 34.103 21.5284C34.2734 21.8068 34.4893 21.9943 34.7507 22.0909C35.0178 22.1818 35.299 22.2273 35.5945 22.2273C35.8161 22.2273 35.9979 22.2159 36.1399 22.1932C36.282 22.1648 36.3956 22.142 36.4808 22.125L36.8899 23.9318C36.7536 23.983 36.5632 24.0341 36.3189 24.0852C36.0746 24.142 35.7649 24.1705 35.3899 24.1705C34.8217 24.1705 34.2649 24.0483 33.7195 23.804C33.1797 23.5597 32.7308 23.1875 32.3729 22.6875C32.0206 22.1875 31.8445 21.5568 31.8445 20.7955V7.77273ZM39.6768 24V10.9091H41.62V12.8864H41.7564C41.995 12.2386 42.4268 11.7131 43.0518 11.3097C43.6768 10.9062 44.3814 10.7045 45.1655 10.7045C45.3132 10.7045 45.4979 10.7074 45.7195 10.7131C45.9411 10.7187 46.1087 10.7273 46.2223 10.7386V12.7841C46.1541 12.767 45.9979 12.7415 45.7536 12.7074C45.5149 12.6676 45.2621 12.6477 44.995 12.6477C44.3587 12.6477 43.7905 12.7812 43.2905 13.0483C42.7962 13.3097 42.4041 13.6733 42.1143 14.1392C41.8303 14.5994 41.6882 15.125 41.6882 15.7159V24H39.6768ZM48.6065 24V10.9091H50.6179V24H48.6065ZM49.6293 8.72727C49.2372 8.72727 48.8991 8.59375 48.6151 8.3267C48.3366 8.05966 48.1974 7.73864 48.1974 7.36364C48.1974 6.98864 48.3366 6.66761 48.6151 6.40057C48.8991 6.13352 49.2372 6 49.6293 6C50.0213 6 50.3565 6.13352 50.6349 6.40057C50.919 6.66761 51.0611 6.98864 51.0611 7.36364C51.0611 7.73864 50.919 8.05966 50.6349 8.3267C50.3565 8.59375 50.0213 8.72727 49.6293 8.72727ZM54.5746 24V6.54545H56.5859V12.9886H56.7564C56.9041 12.7614 57.1087 12.4716 57.37 12.1193C57.6371 11.7614 58.0178 11.4432 58.5121 11.1648C59.0121 10.8807 59.6882 10.7386 60.5405 10.7386C61.6428 10.7386 62.6143 11.0142 63.4553 11.5653C64.2962 12.1165 64.9524 12.8977 65.424 13.9091C65.8956 14.9205 66.1314 16.1136 66.1314 17.4886C66.1314 18.875 65.8956 20.0767 65.424 21.0938C64.9524 22.1051 64.299 22.8892 63.4638 23.446C62.6286 23.9972 61.6655 24.2727 60.5746 24.2727C59.7337 24.2727 59.0604 24.1335 58.5547 23.8551C58.049 23.571 57.6598 23.25 57.3871 22.892C57.1143 22.5284 56.9041 22.2273 56.7564 21.9886H56.5178V24H54.5746ZM56.5518 17.4545C56.5518 18.4432 56.6967 19.3153 56.9865 20.071C57.2763 20.821 57.6996 21.4091 58.2564 21.8352C58.8132 22.2557 59.495 22.4659 60.3018 22.4659C61.1428 22.4659 61.8445 22.2443 62.407 21.8011C62.9751 21.3523 63.4013 20.75 63.6854 19.9943C63.9751 19.233 64.12 18.3864 64.12 17.4545C64.12 16.5341 63.978 15.7045 63.6939 14.9659C63.4155 14.2216 62.9922 13.6335 62.424 13.2017C61.8615 12.7642 61.1541 12.5455 60.3018 12.5455C59.4837 12.5455 58.7962 12.7528 58.2393 13.1676C57.6825 13.5767 57.2621 14.1506 56.978 14.8892C56.6939 15.6222 56.5518 16.4773 56.5518 17.4545ZM77.4581 18.6477V10.9091H79.4695V24H77.4581V21.7841H77.3217C77.0149 22.4489 76.5376 23.0142 75.8899 23.4801C75.2422 23.9403 74.424 24.1705 73.4354 24.1705C72.6172 24.1705 71.8899 23.9915 71.2536 23.6335C70.6172 23.2699 70.1172 22.7244 69.7536 21.9972C69.3899 21.2642 69.2081 20.3409 69.2081 19.2273V10.9091H71.2195V19.0909C71.2195 20.0455 71.4865 20.8068 72.0206 21.375C72.5604 21.9432 73.2479 22.2273 74.0831 22.2273C74.5831 22.2273 75.0916 22.0994 75.6087 21.8438C76.1314 21.5881 76.5689 21.196 76.9212 20.6676C77.2791 20.1392 77.4581 19.4659 77.4581 18.6477ZM88.8466 10.9091V12.6136H82.0625V10.9091H88.8466ZM84.0398 7.77273H86.0511V20.25C86.0511 20.8182 86.1335 21.2443 86.2983 21.5284C86.4688 21.8068 86.6847 21.9943 86.946 22.0909C87.2131 22.1818 87.4943 22.2273 87.7898 22.2273C88.0114 22.2273 88.1932 22.2159 88.3352 22.1932C88.4773 22.1648 88.5909 22.142 88.6761 22.125L89.0852 23.9318C88.9489 23.983 88.7585 24.0341 88.5142 24.0852C88.2699 24.142 87.9602 24.1705 87.5852 24.1705C87.017 24.1705 86.4602 24.0483 85.9148 23.804C85.375 23.5597 84.9261 23.1875 84.5682 22.6875C84.2159 22.1875 84.0398 21.5568 84.0398 20.7955V7.77273ZM97.2202 24.2727C95.9588 24.2727 94.8707 23.9943 93.956 23.4375C93.0469 22.875 92.3452 22.0909 91.8509 21.0852C91.3622 20.0739 91.1179 18.8977 91.1179 17.5568C91.1179 16.2159 91.3622 15.0341 91.8509 14.0114C92.3452 12.983 93.0327 12.1818 93.9134 11.608C94.7997 11.0284 95.8338 10.7386 97.0156 10.7386C97.6974 10.7386 98.3707 10.8523 99.0355 11.0795C99.7003 11.3068 100.305 11.6761 100.851 12.1875C101.396 12.6932 101.831 13.3636 102.155 14.1989C102.479 15.0341 102.641 16.0625 102.641 17.2841V18.1364H92.5497V16.3977H100.595C100.595 15.6591 100.447 15 100.152 14.4205C99.8622 13.8409 99.4474 13.3835 98.9077 13.0483C98.3736 12.7131 97.7429 12.5455 97.0156 12.5455C96.2145 12.5455 95.5213 12.7443 94.9361 13.142C94.3565 13.5341 93.9105 14.0455 93.598 14.6761C93.2855 15.3068 93.1293 15.983 93.1293 16.7045V17.8636C93.1293 18.8523 93.2997 19.6903 93.6406 20.3778C93.9872 21.0597 94.4673 21.5795 95.081 21.9375C95.6946 22.2898 96.4077 22.4659 97.2202 22.4659C97.7486 22.4659 98.2259 22.392 98.652 22.2443C99.0838 22.0909 99.456 21.8636 99.7685 21.5625C100.081 21.2557 100.322 20.875 100.493 20.4205L102.436 20.9659C102.232 21.625 101.888 22.2045 101.405 22.7045C100.922 23.1989 100.325 23.5852 99.6151 23.8636C98.9048 24.1364 98.1065 24.2727 97.2202 24.2727ZM114.973 13.8409L113.166 14.3523C113.053 14.0511 112.885 13.7585 112.663 13.4744C112.447 13.1847 112.152 12.946 111.777 12.7585C111.402 12.571 110.922 12.4773 110.337 12.4773C109.536 12.4773 108.868 12.6619 108.334 13.0312C107.805 13.3949 107.541 13.858 107.541 14.4205C107.541 14.9205 107.723 15.3153 108.087 15.6051C108.45 15.8949 109.018 16.1364 109.791 16.3295L111.734 16.8068C112.905 17.0909 113.777 17.5256 114.351 18.1108C114.925 18.6903 115.212 19.4375 115.212 20.3523C115.212 21.1023 114.996 21.7727 114.564 22.3636C114.138 22.9545 113.541 23.4205 112.774 23.7614C112.007 24.1023 111.115 24.2727 110.098 24.2727C108.763 24.2727 107.658 23.983 106.783 23.4034C105.908 22.8239 105.354 21.9773 105.121 20.8636L107.03 20.3864C107.212 21.0909 107.555 21.6193 108.061 21.9716C108.572 22.3239 109.24 22.5 110.064 22.5C111.001 22.5 111.746 22.3011 112.297 21.9034C112.854 21.5 113.132 21.017 113.132 20.4545C113.132 20 112.973 19.6193 112.655 19.3125C112.337 19 111.848 18.767 111.189 18.6136L109.007 18.1023C107.808 17.8182 106.928 17.3778 106.365 16.7812C105.808 16.179 105.53 15.4261 105.53 14.5227C105.53 13.7841 105.737 13.1307 106.152 12.5625C106.572 11.9943 107.143 11.5483 107.865 11.2244C108.592 10.9006 109.416 10.7386 110.337 10.7386C111.632 10.7386 112.649 11.0227 113.388 11.5909C114.132 12.1591 114.661 12.9091 114.973 13.8409Z" fill="white"/>
<rect x="15" y="35" width="80" height="65" rx="10" fill="url(#paint1_linear_46_2)"/>
<rect x="111" y="35" width="80" height="65" rx="10" fill="url(#paint2_linear_46_2)"/>
<rect x="207" y="35" width="80" height="65" rx="10" fill="url(#paint3_linear_46_2)"/>
<rect x="305" y="35" width="80" height="65" rx="10" fill="url(#paint4_linear_46_2)"/>
<path d="M15 66H95V90C95 95.5228 90.5229 100 85 100H25C19.4772 100 15 95.5228 15 90V66Z" fill="#6F6F6F"/>
<path d="M111 66H191V90C191 95.5228 186.523 100 181 100H121C115.477 100 111 95.5228 111 90V66Z" fill="#6F6F6F"/>
<path d="M207 67H287V91C287 96.5228 282.523 101 277 101H217C211.477 101 207 96.5228 207 91V67Z" fill="#6F6F6F"/>
<path d="M305 66H385V90C385 95.5228 380.523 100 375 100H315C309.477 100 305 95.5228 305 90V66Z" fill="#6F6F6F"/>
<path d="M218.994 46.4545H221.096L226.039 58.5284H226.21L231.153 46.4545H233.255V61H231.607V49.9489H231.465L226.92 61H225.329L220.784 49.9489H220.642V61H218.994V46.4545ZM240.991 61.2273C240.006 61.2273 239.142 60.9929 238.399 60.5241C237.66 60.0554 237.083 59.3996 236.666 58.5568C236.254 57.714 236.048 56.7292 236.048 55.6023C236.048 54.4659 236.254 53.474 236.666 52.6264C237.083 51.7789 237.66 51.1207 238.399 50.652C239.142 50.1832 240.006 49.9489 240.991 49.9489C241.976 49.9489 242.838 50.1832 243.577 50.652C244.32 51.1207 244.898 51.7789 245.309 52.6264C245.726 53.474 245.934 54.4659 245.934 55.6023C245.934 56.7292 245.726 57.714 245.309 58.5568C244.898 59.3996 244.32 60.0554 243.577 60.5241C242.838 60.9929 241.976 61.2273 240.991 61.2273ZM240.991 59.7216C241.739 59.7216 242.355 59.5298 242.838 59.1463C243.321 58.7628 243.678 58.2585 243.91 57.6335C244.142 57.0085 244.258 56.3314 244.258 55.6023C244.258 54.8731 244.142 54.1937 243.91 53.5639C243.678 52.9342 243.321 52.4252 242.838 52.0369C242.355 51.6487 241.739 51.4545 240.991 51.4545C240.243 51.4545 239.628 51.6487 239.145 52.0369C238.662 52.4252 238.304 52.9342 238.072 53.5639C237.84 54.1937 237.724 54.8731 237.724 55.6023C237.724 56.3314 237.84 57.0085 238.072 57.6335C238.304 58.2585 238.662 58.7628 239.145 59.1463C239.628 59.5298 240.243 59.7216 240.991 59.7216ZM252.612 61.2273C251.703 61.2273 250.901 60.9976 250.205 60.5384C249.509 60.0743 248.964 59.4209 248.571 58.5781C248.178 57.7306 247.982 56.7292 247.982 55.5739C247.982 54.428 248.178 53.4337 248.571 52.5909C248.964 51.7481 249.511 51.0971 250.212 50.6378C250.913 50.1785 251.722 49.9489 252.641 49.9489C253.351 49.9489 253.912 50.0672 254.324 50.304C254.741 50.536 255.058 50.8011 255.276 51.0994C255.498 51.393 255.671 51.6345 255.794 51.8239H255.936V46.4545H257.612V61H255.993V59.3239H255.794C255.671 59.5227 255.496 59.7737 255.269 60.0767C255.041 60.375 254.717 60.6425 254.296 60.8793C253.874 61.1113 253.313 61.2273 252.612 61.2273ZM252.84 59.7216C253.512 59.7216 254.08 59.5464 254.544 59.196C255.008 58.8409 255.361 58.3509 255.602 57.7259C255.844 57.0961 255.965 56.3693 255.965 55.5455C255.965 54.7311 255.846 54.0185 255.61 53.4077C255.373 52.7921 255.022 52.3139 254.558 51.973C254.094 51.6274 253.521 51.4545 252.84 51.4545C252.129 51.4545 251.538 51.6368 251.064 52.0014C250.595 52.3613 250.243 52.8513 250.006 53.4716C249.774 54.0871 249.658 54.7784 249.658 55.5455C249.658 56.322 249.776 57.0275 250.013 57.6619C250.254 58.2917 250.61 58.7936 251.078 59.1676C251.552 59.5369 252.139 59.7216 252.84 59.7216ZM265.489 61.2273C264.438 61.2273 263.531 60.9953 262.769 60.5312C262.011 60.0625 261.426 59.4091 261.014 58.571C260.607 57.7282 260.404 56.7481 260.404 55.6307C260.404 54.5133 260.607 53.5284 261.014 52.6761C261.426 51.8191 261.999 51.1515 262.733 50.6733C263.472 50.1903 264.334 49.9489 265.318 49.9489C265.887 49.9489 266.448 50.0436 267.002 50.233C267.556 50.4223 268.06 50.7301 268.514 51.1562C268.969 51.5777 269.331 52.1364 269.601 52.8324C269.871 53.5284 270.006 54.3854 270.006 55.4034V56.1136H261.597V54.6648H268.301C268.301 54.0492 268.178 53.5 267.932 53.017C267.691 52.5341 267.345 52.1529 266.895 51.8736C266.45 51.5942 265.924 51.4545 265.318 51.4545C264.651 51.4545 264.073 51.6203 263.585 51.9517C263.102 52.2784 262.731 52.7045 262.47 53.2301C262.21 53.7557 262.08 54.3191 262.08 54.9205V55.8864C262.08 56.7102 262.222 57.4086 262.506 57.9815C262.795 58.5497 263.195 58.983 263.706 59.2812C264.218 59.5748 264.812 59.7216 265.489 59.7216C265.929 59.7216 266.327 59.66 266.682 59.5369C267.042 59.4091 267.352 59.2197 267.612 58.9688C267.873 58.7131 268.074 58.3958 268.216 58.017L269.835 58.4716C269.665 59.0208 269.378 59.5038 268.976 59.9205C268.574 60.3324 268.076 60.6544 267.485 60.8864C266.893 61.1136 266.227 61.2273 265.489 61.2273ZM274.232 46.4545V61H272.556V46.4545H274.232Z" fill="#5B5B5B"/>
<path d="M218.994 46.4545H221.096L226.039 58.5284H226.21L231.153 46.4545H233.255V61H231.607V49.9489H231.465L226.92 61H225.329L220.784 49.9489H220.642V61H218.994V46.4545ZM240.991 61.2273C240.006 61.2273 239.142 60.9929 238.399 60.5241C237.66 60.0554 237.083 59.3996 236.666 58.5568C236.254 57.714 236.048 56.7292 236.048 55.6023C236.048 54.4659 236.254 53.474 236.666 52.6264C237.083 51.7789 237.66 51.1207 238.399 50.652C239.142 50.1832 240.006 49.9489 240.991 49.9489C241.976 49.9489 242.838 50.1832 243.577 50.652C244.32 51.1207 244.898 51.7789 245.309 52.6264C245.726 53.474 245.934 54.4659 245.934 55.6023C245.934 56.7292 245.726 57.714 245.309 58.5568C244.898 59.3996 244.32 60.0554 243.577 60.5241C242.838 60.9929 241.976 61.2273 240.991 61.2273ZM240.991 59.7216C241.739 59.7216 242.355 59.5298 242.838 59.1463C243.321 58.7628 243.678 58.2585 243.91 57.6335C244.142 57.0085 244.258 56.3314 244.258 55.6023C244.258 54.8731 244.142 54.1937 243.91 53.5639C243.678 52.9342 243.321 52.4252 242.838 52.0369C242.355 51.6487 241.739 51.4545 240.991 51.4545C240.243 51.4545 239.628 51.6487 239.145 52.0369C238.662 52.4252 238.304 52.9342 238.072 53.5639C237.84 54.1937 237.724 54.8731 237.724 55.6023C237.724 56.3314 237.84 57.0085 238.072 57.6335C238.304 58.2585 238.662 58.7628 239.145 59.1463C239.628 59.5298 240.243 59.7216 240.991 59.7216ZM252.612 61.2273C251.703 61.2273 250.901 60.9976 250.205 60.5384C249.509 60.0743 248.964 59.4209 248.571 58.5781C248.178 57.7306 247.982 56.7292 247.982 55.5739C247.982 54.428 248.178 53.4337 248.571 52.5909C248.964 51.7481 249.511 51.0971 250.212 50.6378C250.913 50.1785 251.722 49.9489 252.641 49.9489C253.351 49.9489 253.912 50.0672 254.324 50.304C254.741 50.536 255.058 50.8011 255.276 51.0994C255.498 51.393 255.671 51.6345 255.794 51.8239H255.936V46.4545H257.612V61H255.993V59.3239H255.794C255.671 59.5227 255.496 59.7737 255.269 60.0767C255.041 60.375 254.717 60.6425 254.296 60.8793C253.874 61.1113 253.313 61.2273 252.612 61.2273ZM252.84 59.7216C253.512 59.7216 254.08 59.5464 254.544 59.196C255.008 58.8409 255.361 58.3509 255.602 57.7259C255.844 57.0961 255.965 56.3693 255.965 55.5455C255.965 54.7311 255.846 54.0185 255.61 53.4077C255.373 52.7921 255.022 52.3139 254.558 51.973C254.094 51.6274 253.521 51.4545 252.84 51.4545C252.129 51.4545 251.538 51.6368 251.064 52.0014C250.595 52.3613 250.243 52.8513 250.006 53.4716C249.774 54.0871 249.658 54.7784 249.658 55.5455C249.658 56.322 249.776 57.0275 250.013 57.6619C250.254 58.2917 250.61 58.7936 251.078 59.1676C251.552 59.5369 252.139 59.7216 252.84 59.7216ZM265.489 61.2273C264.438 61.2273 263.531 60.9953 262.769 60.5312C262.011 60.0625 261.426 59.4091 261.014 58.571C260.607 57.7282 260.404 56.7481 260.404 55.6307C260.404 54.5133 260.607 53.5284 261.014 52.6761C261.426 51.8191 261.999 51.1515 262.733 50.6733C263.472 50.1903 264.334 49.9489 265.318 49.9489C265.887 49.9489 266.448 50.0436 267.002 50.233C267.556 50.4223 268.06 50.7301 268.514 51.1562C268.969 51.5777 269.331 52.1364 269.601 52.8324C269.871 53.5284 270.006 54.3854 270.006 55.4034V56.1136H261.597V54.6648H268.301C268.301 54.0492 268.178 53.5 267.932 53.017C267.691 52.5341 267.345 52.1529 266.895 51.8736C266.45 51.5942 265.924 51.4545 265.318 51.4545C264.651 51.4545 264.073 51.6203 263.585 51.9517C263.102 52.2784 262.731 52.7045 262.47 53.2301C262.21 53.7557 262.08 54.3191 262.08 54.9205V55.8864C262.08 56.7102 262.222 57.4086 262.506 57.9815C262.795 58.5497 263.195 58.983 263.706 59.2812C264.218 59.5748 264.812 59.7216 265.489 59.7216C265.929 59.7216 266.327 59.66 266.682 59.5369C267.042 59.4091 267.352 59.2197 267.612 58.9688C267.873 58.7131 268.074 58.3958 268.216 58.017L269.835 58.4716C269.665 59.0208 269.378 59.5038 268.976 59.9205C268.574 60.3324 268.076 60.6544 267.485 60.8864C266.893 61.1136 266.227 61.2273 265.489 61.2273ZM274.232 46.4545V61H272.556V46.4545H274.232Z" fill="#5B5B5B"/>
<path d="M218.994 46.4545H221.096L226.039 58.5284H226.21L231.153 46.4545H233.255V61H231.607V49.9489H231.465L226.92 61H225.329L220.784 49.9489H220.642V61H218.994V46.4545ZM240.991 61.2273C240.006 61.2273 239.142 60.9929 238.399 60.5241C237.66 60.0554 237.083 59.3996 236.666 58.5568C236.254 57.714 236.048 56.7292 236.048 55.6023C236.048 54.4659 236.254 53.474 236.666 52.6264C237.083 51.7789 237.66 51.1207 238.399 50.652C239.142 50.1832 240.006 49.9489 240.991 49.9489C241.976 49.9489 242.838 50.1832 243.577 50.652C244.32 51.1207 244.898 51.7789 245.309 52.6264C245.726 53.474 245.934 54.4659 245.934 55.6023C245.934 56.7292 245.726 57.714 245.309 58.5568C244.898 59.3996 244.32 60.0554 243.577 60.5241C242.838 60.9929 241.976 61.2273 240.991 61.2273ZM240.991 59.7216C241.739 59.7216 242.355 59.5298 242.838 59.1463C243.321 58.7628 243.678 58.2585 243.91 57.6335C244.142 57.0085 244.258 56.3314 244.258 55.6023C244.258 54.8731 244.142 54.1937 243.91 53.5639C243.678 52.9342 243.321 52.4252 242.838 52.0369C242.355 51.6487 241.739 51.4545 240.991 51.4545C240.243 51.4545 239.628 51.6487 239.145 52.0369C238.662 52.4252 238.304 52.9342 238.072 53.5639C237.84 54.1937 237.724 54.8731 237.724 55.6023C237.724 56.3314 237.84 57.0085 238.072 57.6335C238.304 58.2585 238.662 58.7628 239.145 59.1463C239.628 59.5298 240.243 59.7216 240.991 59.7216ZM252.612 61.2273C251.703 61.2273 250.901 60.9976 250.205 60.5384C249.509 60.0743 248.964 59.4209 248.571 58.5781C248.178 57.7306 247.982 56.7292 247.982 55.5739C247.982 54.428 248.178 53.4337 248.571 52.5909C248.964 51.7481 249.511 51.0971 250.212 50.6378C250.913 50.1785 251.722 49.9489 252.641 49.9489C253.351 49.9489 253.912 50.0672 254.324 50.304C254.741 50.536 255.058 50.8011 255.276 51.0994C255.498 51.393 255.671 51.6345 255.794 51.8239H255.936V46.4545H257.612V61H255.993V59.3239H255.794C255.671 59.5227 255.496 59.7737 255.269 60.0767C255.041 60.375 254.717 60.6425 254.296 60.8793C253.874 61.1113 253.313 61.2273 252.612 61.2273ZM252.84 59.7216C253.512 59.7216 254.08 59.5464 254.544 59.196C255.008 58.8409 255.361 58.3509 255.602 57.7259C255.844 57.0961 255.965 56.3693 255.965 55.5455C255.965 54.7311 255.846 54.0185 255.61 53.4077C255.373 52.7921 255.022 52.3139 254.558 51.973C254.094 51.6274 253.521 51.4545 252.84 51.4545C252.129 51.4545 251.538 51.6368 251.064 52.0014C250.595 52.3613 250.243 52.8513 250.006 53.4716C249.774 54.0871 249.658 54.7784 249.658 55.5455C249.658 56.322 249.776 57.0275 250.013 57.6619C250.254 58.2917 250.61 58.7936 251.078 59.1676C251.552 59.5369 252.139 59.7216 252.84 59.7216ZM265.489 61.2273C264.438 61.2273 263.531 60.9953 262.769 60.5312C262.011 60.0625 261.426 59.4091 261.014 58.571C260.607 57.7282 260.404 56.7481 260.404 55.6307C260.404 54.5133 260.607 53.5284 261.014 52.6761C261.426 51.8191 261.999 51.1515 262.733 50.6733C263.472 50.1903 264.334 49.9489 265.318 49.9489C265.887 49.9489 266.448 50.0436 267.002 50.233C267.556 50.4223 268.06 50.7301 268.514 51.1562C268.969 51.5777 269.331 52.1364 269.601 52.8324C269.871 53.5284 270.006 54.3854 270.006 55.4034V56.1136H261.597V54.6648H268.301C268.301 54.0492 268.178 53.5 267.932 53.017C267.691 52.5341 267.345 52.1529 266.895 51.8736C266.45 51.5942 265.924 51.4545 265.318 51.4545C264.651 51.4545 264.073 51.6203 263.585 51.9517C263.102 52.2784 262.731 52.7045 262.47 53.2301C262.21 53.7557 262.08 54.3191 262.08 54.9205V55.8864C262.08 56.7102 262.222 57.4086 262.506 57.9815C262.795 58.5497 263.195 58.983 263.706 59.2812C264.218 59.5748 264.812 59.7216 265.489 59.7216C265.929 59.7216 266.327 59.66 266.682 59.5369C267.042 59.4091 267.352 59.2197 267.612 58.9688C267.873 58.7131 268.074 58.3958 268.216 58.017L269.835 58.4716C269.665 59.0208 269.378 59.5038 268.976 59.9205C268.574 60.3324 268.076 60.6544 267.485 60.8864C266.893 61.1136 266.227 61.2273 265.489 61.2273ZM274.232 46.4545V61H272.556V46.4545H274.232Z" fill="black"/>
<path d="M128.183 61V46.4545H133.098C134.234 46.4545 135.167 46.6487 135.896 47.0369C136.625 47.4205 137.165 47.9484 137.516 48.6207C137.866 49.2931 138.041 50.0578 138.041 50.9148C138.041 51.7718 137.866 52.5317 137.516 53.1946C137.165 53.8575 136.628 54.3783 135.903 54.7571C135.179 55.1312 134.253 55.3182 133.126 55.3182H129.149V53.7273H133.07C133.846 53.7273 134.471 53.6136 134.945 53.3864C135.423 53.1591 135.768 52.8371 135.982 52.4205C136.199 51.9991 136.308 51.4972 136.308 50.9148C136.308 50.3324 136.199 49.8234 135.982 49.3878C135.764 48.9522 135.416 48.616 134.938 48.3793C134.459 48.1378 133.827 48.017 133.041 48.017H129.945V61H128.183ZM135.03 54.4659L138.609 61H136.564L133.041 54.4659H135.03ZM145.206 61.2273C144.154 61.2273 143.248 60.9953 142.485 60.5312C141.728 60.0625 141.143 59.4091 140.731 58.571C140.324 57.7282 140.12 56.7481 140.12 55.6307C140.12 54.5133 140.324 53.5284 140.731 52.6761C141.143 51.8191 141.716 51.1515 142.45 50.6733C143.189 50.1903 144.05 49.9489 145.035 49.9489C145.603 49.9489 146.164 50.0436 146.718 50.233C147.272 50.4223 147.777 50.7301 148.231 51.1562C148.686 51.5777 149.048 52.1364 149.318 52.8324C149.588 53.5284 149.723 54.3854 149.723 55.4034V56.1136H141.314V54.6648H148.018C148.018 54.0492 147.895 53.5 147.649 53.017C147.407 52.5341 147.062 52.1529 146.612 51.8736C146.167 51.5942 145.641 51.4545 145.035 51.4545C144.368 51.4545 143.79 51.6203 143.302 51.9517C142.819 52.2784 142.448 52.7045 142.187 53.2301C141.927 53.7557 141.797 54.3191 141.797 54.9205V55.8864C141.797 56.7102 141.939 57.4086 142.223 57.9815C142.511 58.5497 142.912 58.983 143.423 59.2812C143.934 59.5748 144.529 59.7216 145.206 59.7216C145.646 59.7216 146.044 59.66 146.399 59.5369C146.759 59.4091 147.069 59.2197 147.329 58.9688C147.59 58.7131 147.791 58.3958 147.933 58.017L149.552 58.4716C149.382 59.0208 149.095 59.5038 148.693 59.9205C148.29 60.3324 147.793 60.6544 147.201 60.8864C146.609 61.1136 145.944 61.2273 145.206 61.2273ZM157.13 50.0909V51.5114H151.25V50.0909H157.13ZM153.011 61V48.5852C153.011 47.9602 153.158 47.4394 153.451 47.0227C153.745 46.6061 154.126 46.2936 154.595 46.0852C155.064 45.8769 155.558 45.7727 156.079 45.7727C156.491 45.7727 156.827 45.8059 157.088 45.8722C157.348 45.9384 157.542 46 157.67 46.0568L157.187 47.5057C157.102 47.4773 156.984 47.4418 156.832 47.3991C156.685 47.3565 156.491 47.3352 156.25 47.3352C155.696 47.3352 155.296 47.4749 155.049 47.7543C154.808 48.0336 154.687 48.4432 154.687 48.983V61H153.011ZM163.604 61.2273C162.553 61.2273 161.646 60.9953 160.884 60.5312C160.126 60.0625 159.542 59.4091 159.13 58.571C158.722 57.7282 158.519 56.7481 158.519 55.6307C158.519 54.5133 158.722 53.5284 159.13 52.6761C159.542 51.8191 160.114 51.1515 160.848 50.6733C161.587 50.1903 162.449 49.9489 163.434 49.9489C164.002 49.9489 164.563 50.0436 165.117 50.233C165.671 50.4223 166.175 50.7301 166.63 51.1562C167.084 51.5777 167.446 52.1364 167.716 52.8324C167.986 53.5284 168.121 54.3854 168.121 55.4034V56.1136H159.712V54.6648H166.417C166.417 54.0492 166.293 53.5 166.047 53.017C165.806 52.5341 165.46 52.1529 165.01 51.8736C164.565 51.5942 164.04 51.4545 163.434 51.4545C162.766 51.4545 162.188 51.6203 161.701 51.9517C161.218 52.2784 160.846 52.7045 160.586 53.2301C160.325 53.7557 160.195 54.3191 160.195 54.9205V55.8864C160.195 56.7102 160.337 57.4086 160.621 57.9815C160.91 58.5497 161.31 58.983 161.821 59.2812C162.333 59.5748 162.927 59.7216 163.604 59.7216C164.044 59.7216 164.442 59.66 164.797 59.5369C165.157 59.4091 165.467 59.2197 165.728 58.9688C165.988 58.7131 166.189 58.3958 166.331 58.017L167.951 58.4716C167.78 59.0208 167.494 59.5038 167.091 59.9205C166.689 60.3324 166.192 60.6544 165.6 60.8864C165.008 61.1136 164.343 61.2273 163.604 61.2273ZM170.671 61V50.0909H172.29V51.7386H172.404C172.603 51.1989 172.962 50.7609 173.483 50.4247C174.004 50.0885 174.591 49.9205 175.245 49.9205C175.368 49.9205 175.522 49.9228 175.706 49.9276C175.891 49.9323 176.031 49.9394 176.125 49.9489V51.6534C176.069 51.6392 175.938 51.6179 175.735 51.5895C175.536 51.5563 175.325 51.5398 175.103 51.5398C174.572 51.5398 174.099 51.651 173.682 51.8736C173.27 52.0914 172.944 52.3944 172.702 52.7827C172.465 53.1662 172.347 53.6042 172.347 54.0966V61H170.671Z" fill="#5B5B5B"/>
<path d="M128.183 61V46.4545H133.098C134.234 46.4545 135.167 46.6487 135.896 47.0369C136.625 47.4205 137.165 47.9484 137.516 48.6207C137.866 49.2931 138.041 50.0578 138.041 50.9148C138.041 51.7718 137.866 52.5317 137.516 53.1946C137.165 53.8575 136.628 54.3783 135.903 54.7571C135.179 55.1312 134.253 55.3182 133.126 55.3182H129.149V53.7273H133.07C133.846 53.7273 134.471 53.6136 134.945 53.3864C135.423 53.1591 135.768 52.8371 135.982 52.4205C136.199 51.9991 136.308 51.4972 136.308 50.9148C136.308 50.3324 136.199 49.8234 135.982 49.3878C135.764 48.9522 135.416 48.616 134.938 48.3793C134.459 48.1378 133.827 48.017 133.041 48.017H129.945V61H128.183ZM135.03 54.4659L138.609 61H136.564L133.041 54.4659H135.03ZM145.206 61.2273C144.154 61.2273 143.248 60.9953 142.485 60.5312C141.728 60.0625 141.143 59.4091 140.731 58.571C140.324 57.7282 140.12 56.7481 140.12 55.6307C140.12 54.5133 140.324 53.5284 140.731 52.6761C141.143 51.8191 141.716 51.1515 142.45 50.6733C143.189 50.1903 144.05 49.9489 145.035 49.9489C145.603 49.9489 146.164 50.0436 146.718 50.233C147.272 50.4223 147.777 50.7301 148.231 51.1562C148.686 51.5777 149.048 52.1364 149.318 52.8324C149.588 53.5284 149.723 54.3854 149.723 55.4034V56.1136H141.314V54.6648H148.018C148.018 54.0492 147.895 53.5 147.649 53.017C147.407 52.5341 147.062 52.1529 146.612 51.8736C146.167 51.5942 145.641 51.4545 145.035 51.4545C144.368 51.4545 143.79 51.6203 143.302 51.9517C142.819 52.2784 142.448 52.7045 142.187 53.2301C141.927 53.7557 141.797 54.3191 141.797 54.9205V55.8864C141.797 56.7102 141.939 57.4086 142.223 57.9815C142.511 58.5497 142.912 58.983 143.423 59.2812C143.934 59.5748 144.529 59.7216 145.206 59.7216C145.646 59.7216 146.044 59.66 146.399 59.5369C146.759 59.4091 147.069 59.2197 147.329 58.9688C147.59 58.7131 147.791 58.3958 147.933 58.017L149.552 58.4716C149.382 59.0208 149.095 59.5038 148.693 59.9205C148.29 60.3324 147.793 60.6544 147.201 60.8864C146.609 61.1136 145.944 61.2273 145.206 61.2273ZM157.13 50.0909V51.5114H151.25V50.0909H157.13ZM153.011 61V48.5852C153.011 47.9602 153.158 47.4394 153.451 47.0227C153.745 46.6061 154.126 46.2936 154.595 46.0852C155.064 45.8769 155.558 45.7727 156.079 45.7727C156.491 45.7727 156.827 45.8059 157.088 45.8722C157.348 45.9384 157.542 46 157.67 46.0568L157.187 47.5057C157.102 47.4773 156.984 47.4418 156.832 47.3991C156.685 47.3565 156.491 47.3352 156.25 47.3352C155.696 47.3352 155.296 47.4749 155.049 47.7543C154.808 48.0336 154.687 48.4432 154.687 48.983V61H153.011ZM163.604 61.2273C162.553 61.2273 161.646 60.9953 160.884 60.5312C160.126 60.0625 159.542 59.4091 159.13 58.571C158.722 57.7282 158.519 56.7481 158.519 55.6307C158.519 54.5133 158.722 53.5284 159.13 52.6761C159.542 51.8191 160.114 51.1515 160.848 50.6733C161.587 50.1903 162.449 49.9489 163.434 49.9489C164.002 49.9489 164.563 50.0436 165.117 50.233C165.671 50.4223 166.175 50.7301 166.63 51.1562C167.084 51.5777 167.446 52.1364 167.716 52.8324C167.986 53.5284 168.121 54.3854 168.121 55.4034V56.1136H159.712V54.6648H166.417C166.417 54.0492 166.293 53.5 166.047 53.017C165.806 52.5341 165.46 52.1529 165.01 51.8736C164.565 51.5942 164.04 51.4545 163.434 51.4545C162.766 51.4545 162.188 51.6203 161.701 51.9517C161.218 52.2784 160.846 52.7045 160.586 53.2301C160.325 53.7557 160.195 54.3191 160.195 54.9205V55.8864C160.195 56.7102 160.337 57.4086 160.621 57.9815C160.91 58.5497 161.31 58.983 161.821 59.2812C162.333 59.5748 162.927 59.7216 163.604 59.7216C164.044 59.7216 164.442 59.66 164.797 59.5369C165.157 59.4091 165.467 59.2197 165.728 58.9688C165.988 58.7131 166.189 58.3958 166.331 58.017L167.951 58.4716C167.78 59.0208 167.494 59.5038 167.091 59.9205C166.689 60.3324 166.192 60.6544 165.6 60.8864C165.008 61.1136 164.343 61.2273 163.604 61.2273ZM170.671 61V50.0909H172.29V51.7386H172.404C172.603 51.1989 172.962 50.7609 173.483 50.4247C174.004 50.0885 174.591 49.9205 175.245 49.9205C175.368 49.9205 175.522 49.9228 175.706 49.9276C175.891 49.9323 176.031 49.9394 176.125 49.9489V51.6534C176.069 51.6392 175.938 51.6179 175.735 51.5895C175.536 51.5563 175.325 51.5398 175.103 51.5398C174.572 51.5398 174.099 51.651 173.682 51.8736C173.27 52.0914 172.944 52.3944 172.702 52.7827C172.465 53.1662 172.347 53.6042 172.347 54.0966V61H170.671Z" fill="#5B5B5B"/>
<path d="M128.183 61V46.4545H133.098C134.234 46.4545 135.167 46.6487 135.896 47.0369C136.625 47.4205 137.165 47.9484 137.516 48.6207C137.866 49.2931 138.041 50.0578 138.041 50.9148C138.041 51.7718 137.866 52.5317 137.516 53.1946C137.165 53.8575 136.628 54.3783 135.903 54.7571C135.179 55.1312 134.253 55.3182 133.126 55.3182H129.149V53.7273H133.07C133.846 53.7273 134.471 53.6136 134.945 53.3864C135.423 53.1591 135.768 52.8371 135.982 52.4205C136.199 51.9991 136.308 51.4972 136.308 50.9148C136.308 50.3324 136.199 49.8234 135.982 49.3878C135.764 48.9522 135.416 48.616 134.938 48.3793C134.459 48.1378 133.827 48.017 133.041 48.017H129.945V61H128.183ZM135.03 54.4659L138.609 61H136.564L133.041 54.4659H135.03ZM145.206 61.2273C144.154 61.2273 143.248 60.9953 142.485 60.5312C141.728 60.0625 141.143 59.4091 140.731 58.571C140.324 57.7282 140.12 56.7481 140.12 55.6307C140.12 54.5133 140.324 53.5284 140.731 52.6761C141.143 51.8191 141.716 51.1515 142.45 50.6733C143.189 50.1903 144.05 49.9489 145.035 49.9489C145.603 49.9489 146.164 50.0436 146.718 50.233C147.272 50.4223 147.777 50.7301 148.231 51.1562C148.686 51.5777 149.048 52.1364 149.318 52.8324C149.588 53.5284 149.723 54.3854 149.723 55.4034V56.1136H141.314V54.6648H148.018C148.018 54.0492 147.895 53.5 147.649 53.017C147.407 52.5341 147.062 52.1529 146.612 51.8736C146.167 51.5942 145.641 51.4545 145.035 51.4545C144.368 51.4545 143.79 51.6203 143.302 51.9517C142.819 52.2784 142.448 52.7045 142.187 53.2301C141.927 53.7557 141.797 54.3191 141.797 54.9205V55.8864C141.797 56.7102 141.939 57.4086 142.223 57.9815C142.511 58.5497 142.912 58.983 143.423 59.2812C143.934 59.5748 144.529 59.7216 145.206 59.7216C145.646 59.7216 146.044 59.66 146.399 59.5369C146.759 59.4091 147.069 59.2197 147.329 58.9688C147.59 58.7131 147.791 58.3958 147.933 58.017L149.552 58.4716C149.382 59.0208 149.095 59.5038 148.693 59.9205C148.29 60.3324 147.793 60.6544 147.201 60.8864C146.609 61.1136 145.944 61.2273 145.206 61.2273ZM157.13 50.0909V51.5114H151.25V50.0909H157.13ZM153.011 61V48.5852C153.011 47.9602 153.158 47.4394 153.451 47.0227C153.745 46.6061 154.126 46.2936 154.595 46.0852C155.064 45.8769 155.558 45.7727 156.079 45.7727C156.491 45.7727 156.827 45.8059 157.088 45.8722C157.348 45.9384 157.542 46 157.67 46.0568L157.187 47.5057C157.102 47.4773 156.984 47.4418 156.832 47.3991C156.685 47.3565 156.491 47.3352 156.25 47.3352C155.696 47.3352 155.296 47.4749 155.049 47.7543C154.808 48.0336 154.687 48.4432 154.687 48.983V61H153.011ZM163.604 61.2273C162.553 61.2273 161.646 60.9953 160.884 60.5312C160.126 60.0625 159.542 59.4091 159.13 58.571C158.722 57.7282 158.519 56.7481 158.519 55.6307C158.519 54.5133 158.722 53.5284 159.13 52.6761C159.542 51.8191 160.114 51.1515 160.848 50.6733C161.587 50.1903 162.449 49.9489 163.434 49.9489C164.002 49.9489 164.563 50.0436 165.117 50.233C165.671 50.4223 166.175 50.7301 166.63 51.1562C167.084 51.5777 167.446 52.1364 167.716 52.8324C167.986 53.5284 168.121 54.3854 168.121 55.4034V56.1136H159.712V54.6648H166.417C166.417 54.0492 166.293 53.5 166.047 53.017C165.806 52.5341 165.46 52.1529 165.01 51.8736C164.565 51.5942 164.04 51.4545 163.434 51.4545C162.766 51.4545 162.188 51.6203 161.701 51.9517C161.218 52.2784 160.846 52.7045 160.586 53.2301C160.325 53.7557 160.195 54.3191 160.195 54.9205V55.8864C160.195 56.7102 160.337 57.4086 160.621 57.9815C160.91 58.5497 161.31 58.983 161.821 59.2812C162.333 59.5748 162.927 59.7216 163.604 59.7216C164.044 59.7216 164.442 59.66 164.797 59.5369C165.157 59.4091 165.467 59.2197 165.728 58.9688C165.988 58.7131 166.189 58.3958 166.331 58.017L167.951 58.4716C167.78 59.0208 167.494 59.5038 167.091 59.9205C166.689 60.3324 166.192 60.6544 165.6 60.8864C165.008 61.1136 164.343 61.2273 163.604 61.2273ZM170.671 61V50.0909H172.29V51.7386H172.404C172.603 51.1989 172.962 50.7609 173.483 50.4247C174.004 50.0885 174.591 49.9205 175.245 49.9205C175.368 49.9205 175.522 49.9228 175.706 49.9276C175.891 49.9323 176.031 49.9394 176.125 49.9489V51.6534C176.069 51.6392 175.938 51.6179 175.735 51.5895C175.536 51.5563 175.325 51.5398 175.103 51.5398C174.572 51.5398 174.099 51.651 173.682 51.8736C173.27 52.0914 172.944 52.3944 172.702 52.7827C172.465 53.1662 172.347 53.6042 172.347 54.0966V61H170.671Z" fill="black"/>
<path d="M28.8414 61V46.4545H33.9267C34.9399 46.4545 35.7756 46.6297 36.4338 46.9801C37.0919 47.3258 37.582 47.7921 37.9039 48.3793C38.2259 48.9616 38.3869 49.608 38.3869 50.3182C38.3869 50.9432 38.2756 51.4593 38.0531 51.8665C37.8353 52.2737 37.5465 52.5956 37.1866 52.8324C36.8315 53.0691 36.4456 53.2443 36.0289 53.358V53.5C36.474 53.5284 36.9215 53.6847 37.3713 53.9688C37.8211 54.2528 38.1975 54.66 38.5005 55.1903C38.8036 55.7206 38.9551 56.3693 38.9551 57.1364C38.9551 57.8655 38.7894 58.5213 38.4579 59.1037C38.1265 59.6861 37.6033 60.1477 36.8883 60.4886C36.1734 60.8295 35.243 61 34.0971 61H28.8414ZM30.6028 59.4375H34.0971C35.2477 59.4375 36.0645 59.215 36.5474 58.7699C37.0351 58.3201 37.2789 57.7756 37.2789 57.1364C37.2789 56.6439 37.1535 56.1894 36.9025 55.7727C36.6516 55.3513 36.2941 55.0152 35.8301 54.7642C35.3661 54.5085 34.8168 54.3807 34.1824 54.3807H30.6028V59.4375ZM30.6028 52.8466H33.8699C34.4002 52.8466 34.8784 52.7424 35.3045 52.5341C35.7354 52.3258 36.0763 52.0322 36.3272 51.6534C36.5829 51.2746 36.7108 50.8295 36.7108 50.3182C36.7108 49.679 36.4882 49.1368 36.0431 48.6918C35.5981 48.242 34.8926 48.017 33.9267 48.017H30.6028V52.8466ZM41.622 61V50.0909H43.2413V51.7386H43.3549C43.5538 51.1989 43.9136 50.7609 44.4345 50.4247C44.9553 50.0885 45.5424 49.9205 46.1958 49.9205C46.319 49.9205 46.4728 49.9228 46.6575 49.9276C46.8422 49.9323 46.9818 49.9394 47.0765 49.9489V51.6534C47.0197 51.6392 46.8895 51.6179 46.6859 51.5895C46.487 51.5563 46.2763 51.5398 46.0538 51.5398C45.5235 51.5398 45.05 51.651 44.6333 51.8736C44.2214 52.0914 43.8947 52.3944 43.6532 52.7827C43.4165 53.1662 43.2981 53.6042 43.2981 54.0966V61H41.622ZM52.2736 61.2557C51.5823 61.2557 50.955 61.1255 50.3915 60.8651C49.8281 60.5999 49.3806 60.2188 49.0492 59.7216C48.7177 59.2197 48.552 58.6136 48.552 57.9034C48.552 57.2784 48.6751 56.7718 48.9213 56.3835C49.1676 55.9905 49.4966 55.6828 49.9086 55.4602C50.3205 55.2377 50.775 55.072 51.2722 54.9631C51.7741 54.8494 52.2783 54.7595 52.785 54.6932C53.4479 54.608 53.9853 54.544 54.3972 54.5014C54.8139 54.4541 55.1169 54.3759 55.3063 54.267C55.5004 54.1581 55.5975 53.9687 55.5975 53.6989V53.642C55.5975 52.9413 55.4057 52.3968 55.0222 52.0085C54.6434 51.6203 54.0681 51.4261 53.2963 51.4261C52.4962 51.4261 51.8688 51.6013 51.4142 51.9517C50.9597 52.3021 50.6401 52.6761 50.4554 53.0739L48.8645 52.5057C49.1486 51.8428 49.5274 51.3267 50.0009 50.9574C50.4791 50.5833 50.9999 50.3229 51.5634 50.1761C52.1316 50.0246 52.6903 49.9489 53.2395 49.9489C53.5899 49.9489 53.9924 49.9915 54.4469 50.0767C54.9062 50.1572 55.3489 50.3253 55.775 50.581C56.2059 50.8366 56.5634 51.2225 56.8475 51.7386C57.1316 52.2547 57.2736 52.946 57.2736 53.8125V61H55.5975V59.5227H55.5123C55.3986 59.7595 55.2092 60.0128 54.9441 60.2827C54.6789 60.5526 54.3262 60.7822 53.8858 60.9716C53.4455 61.161 52.9081 61.2557 52.2736 61.2557ZM52.5293 59.75C53.1922 59.75 53.7509 59.6198 54.2054 59.3594C54.6647 59.099 55.0104 58.7628 55.2424 58.3509C55.4791 57.9389 55.5975 57.5057 55.5975 57.0511V55.517C55.5265 55.6023 55.3702 55.6804 55.1287 55.7514C54.892 55.8177 54.6174 55.8769 54.3049 55.929C53.9971 55.9763 53.6964 56.0189 53.4029 56.0568C53.1141 56.09 52.8797 56.1184 52.6998 56.142C52.2641 56.1989 51.8569 56.2912 51.4782 56.419C51.1041 56.5421 50.8011 56.7292 50.5691 56.9801C50.3418 57.2263 50.2282 57.5625 50.2282 57.9886C50.2282 58.571 50.4436 59.0114 50.8745 59.3097C51.3101 59.6032 51.8617 59.75 52.5293 59.75ZM62.0091 54.4375V61H60.3329V50.0909H61.9522V51.7955H62.0943C62.35 51.2415 62.7382 50.7964 63.2591 50.4602C63.7799 50.1193 64.4522 49.9489 65.2761 49.9489C66.0147 49.9489 66.661 50.1004 67.215 50.4034C67.769 50.7017 68.1999 51.1562 68.5076 51.767C68.8154 52.3731 68.9693 53.1402 68.9693 54.0682V61H67.2931V54.1818C67.2931 53.3248 67.0706 52.6572 66.6255 52.179C66.1805 51.696 65.5697 51.4545 64.7931 51.4545C64.2581 51.4545 63.7799 51.5705 63.3585 51.8026C62.9418 52.0346 62.6127 52.3731 62.3713 52.8182C62.1298 53.2633 62.0091 53.803 62.0091 54.4375ZM76.1515 61.2273C75.2424 61.2273 74.4398 60.9976 73.7438 60.5384C73.0478 60.0743 72.5033 59.4209 72.1103 58.5781C71.7173 57.7306 71.5208 56.7292 71.5208 55.5739C71.5208 54.428 71.7173 53.4337 72.1103 52.5909C72.5033 51.7481 73.0501 51.0971 73.7509 50.6378C74.4516 50.1785 75.2613 49.9489 76.1799 49.9489C76.8901 49.9489 77.4512 50.0672 77.8631 50.304C78.2798 50.536 78.597 50.8011 78.8148 51.0994C79.0373 51.393 79.2102 51.6345 79.3333 51.8239H79.4753V46.4545H81.1515V61H79.5321V59.3239H79.3333C79.2102 59.5227 79.035 59.7737 78.8077 60.0767C78.5804 60.375 78.2561 60.6425 77.8347 60.8793C77.4133 61.1113 76.8522 61.2273 76.1515 61.2273ZM76.3787 59.7216C77.0511 59.7216 77.6193 59.5464 78.0833 59.196C78.5473 58.8409 78.9 58.3509 79.1415 57.7259C79.383 57.0961 79.5037 56.3693 79.5037 55.5455C79.5037 54.7311 79.3854 54.0185 79.1486 53.4077C78.9119 52.7921 78.5615 52.3139 78.0975 51.973C77.6335 51.6274 77.0605 51.4545 76.3787 51.4545C75.6685 51.4545 75.0766 51.6368 74.6032 52.0014C74.1344 52.3613 73.7817 52.8513 73.5449 53.4716C73.3129 54.0871 73.1969 54.7784 73.1969 55.5455C73.1969 56.322 73.3153 57.0275 73.552 57.6619C73.7935 58.2917 74.1486 58.7936 74.6174 59.1676C75.0909 59.5369 75.678 59.7216 76.3787 59.7216Z" fill="#5B5B5B"/>
<path d="M28.8414 61V46.4545H33.9267C34.9399 46.4545 35.7756 46.6297 36.4338 46.9801C37.0919 47.3258 37.582 47.7921 37.9039 48.3793C38.2259 48.9616 38.3869 49.608 38.3869 50.3182C38.3869 50.9432 38.2756 51.4593 38.0531 51.8665C37.8353 52.2737 37.5465 52.5956 37.1866 52.8324C36.8315 53.0691 36.4456 53.2443 36.0289 53.358V53.5C36.474 53.5284 36.9215 53.6847 37.3713 53.9688C37.8211 54.2528 38.1975 54.66 38.5005 55.1903C38.8036 55.7206 38.9551 56.3693 38.9551 57.1364C38.9551 57.8655 38.7894 58.5213 38.4579 59.1037C38.1265 59.6861 37.6033 60.1477 36.8883 60.4886C36.1734 60.8295 35.243 61 34.0971 61H28.8414ZM30.6028 59.4375H34.0971C35.2477 59.4375 36.0645 59.215 36.5474 58.7699C37.0351 58.3201 37.2789 57.7756 37.2789 57.1364C37.2789 56.6439 37.1535 56.1894 36.9025 55.7727C36.6516 55.3513 36.2941 55.0152 35.8301 54.7642C35.3661 54.5085 34.8168 54.3807 34.1824 54.3807H30.6028V59.4375ZM30.6028 52.8466H33.8699C34.4002 52.8466 34.8784 52.7424 35.3045 52.5341C35.7354 52.3258 36.0763 52.0322 36.3272 51.6534C36.5829 51.2746 36.7108 50.8295 36.7108 50.3182C36.7108 49.679 36.4882 49.1368 36.0431 48.6918C35.5981 48.242 34.8926 48.017 33.9267 48.017H30.6028V52.8466ZM41.622 61V50.0909H43.2413V51.7386H43.3549C43.5538 51.1989 43.9136 50.7609 44.4345 50.4247C44.9553 50.0885 45.5424 49.9205 46.1958 49.9205C46.319 49.9205 46.4728 49.9228 46.6575 49.9276C46.8422 49.9323 46.9818 49.9394 47.0765 49.9489V51.6534C47.0197 51.6392 46.8895 51.6179 46.6859 51.5895C46.487 51.5563 46.2763 51.5398 46.0538 51.5398C45.5235 51.5398 45.05 51.651 44.6333 51.8736C44.2214 52.0914 43.8947 52.3944 43.6532 52.7827C43.4165 53.1662 43.2981 53.6042 43.2981 54.0966V61H41.622ZM52.2736 61.2557C51.5823 61.2557 50.955 61.1255 50.3915 60.8651C49.8281 60.5999 49.3806 60.2188 49.0492 59.7216C48.7177 59.2197 48.552 58.6136 48.552 57.9034C48.552 57.2784 48.6751 56.7718 48.9213 56.3835C49.1676 55.9905 49.4966 55.6828 49.9086 55.4602C50.3205 55.2377 50.775 55.072 51.2722 54.9631C51.7741 54.8494 52.2783 54.7595 52.785 54.6932C53.4479 54.608 53.9853 54.544 54.3972 54.5014C54.8139 54.4541 55.1169 54.3759 55.3063 54.267C55.5004 54.1581 55.5975 53.9687 55.5975 53.6989V53.642C55.5975 52.9413 55.4057 52.3968 55.0222 52.0085C54.6434 51.6203 54.0681 51.4261 53.2963 51.4261C52.4962 51.4261 51.8688 51.6013 51.4142 51.9517C50.9597 52.3021 50.6401 52.6761 50.4554 53.0739L48.8645 52.5057C49.1486 51.8428 49.5274 51.3267 50.0009 50.9574C50.4791 50.5833 50.9999 50.3229 51.5634 50.1761C52.1316 50.0246 52.6903 49.9489 53.2395 49.9489C53.5899 49.9489 53.9924 49.9915 54.4469 50.0767C54.9062 50.1572 55.3489 50.3253 55.775 50.581C56.2059 50.8366 56.5634 51.2225 56.8475 51.7386C57.1316 52.2547 57.2736 52.946 57.2736 53.8125V61H55.5975V59.5227H55.5123C55.3986 59.7595 55.2092 60.0128 54.9441 60.2827C54.6789 60.5526 54.3262 60.7822 53.8858 60.9716C53.4455 61.161 52.9081 61.2557 52.2736 61.2557ZM52.5293 59.75C53.1922 59.75 53.7509 59.6198 54.2054 59.3594C54.6647 59.099 55.0104 58.7628 55.2424 58.3509C55.4791 57.9389 55.5975 57.5057 55.5975 57.0511V55.517C55.5265 55.6023 55.3702 55.6804 55.1287 55.7514C54.892 55.8177 54.6174 55.8769 54.3049 55.929C53.9971 55.9763 53.6964 56.0189 53.4029 56.0568C53.1141 56.09 52.8797 56.1184 52.6998 56.142C52.2641 56.1989 51.8569 56.2912 51.4782 56.419C51.1041 56.5421 50.8011 56.7292 50.5691 56.9801C50.3418 57.2263 50.2282 57.5625 50.2282 57.9886C50.2282 58.571 50.4436 59.0114 50.8745 59.3097C51.3101 59.6032 51.8617 59.75 52.5293 59.75ZM62.0091 54.4375V61H60.3329V50.0909H61.9522V51.7955H62.0943C62.35 51.2415 62.7382 50.7964 63.2591 50.4602C63.7799 50.1193 64.4522 49.9489 65.2761 49.9489C66.0147 49.9489 66.661 50.1004 67.215 50.4034C67.769 50.7017 68.1999 51.1562 68.5076 51.767C68.8154 52.3731 68.9693 53.1402 68.9693 54.0682V61H67.2931V54.1818C67.2931 53.3248 67.0706 52.6572 66.6255 52.179C66.1805 51.696 65.5697 51.4545 64.7931 51.4545C64.2581 51.4545 63.7799 51.5705 63.3585 51.8026C62.9418 52.0346 62.6127 52.3731 62.3713 52.8182C62.1298 53.2633 62.0091 53.803 62.0091 54.4375ZM76.1515 61.2273C75.2424 61.2273 74.4398 60.9976 73.7438 60.5384C73.0478 60.0743 72.5033 59.4209 72.1103 58.5781C71.7173 57.7306 71.5208 56.7292 71.5208 55.5739C71.5208 54.428 71.7173 53.4337 72.1103 52.5909C72.5033 51.7481 73.0501 51.0971 73.7509 50.6378C74.4516 50.1785 75.2613 49.9489 76.1799 49.9489C76.8901 49.9489 77.4512 50.0672 77.8631 50.304C78.2798 50.536 78.597 50.8011 78.8148 51.0994C79.0373 51.393 79.2102 51.6345 79.3333 51.8239H79.4753V46.4545H81.1515V61H79.5321V59.3239H79.3333C79.2102 59.5227 79.035 59.7737 78.8077 60.0767C78.5804 60.375 78.2561 60.6425 77.8347 60.8793C77.4133 61.1113 76.8522 61.2273 76.1515 61.2273ZM76.3787 59.7216C77.0511 59.7216 77.6193 59.5464 78.0833 59.196C78.5473 58.8409 78.9 58.3509 79.1415 57.7259C79.383 57.0961 79.5037 56.3693 79.5037 55.5455C79.5037 54.7311 79.3854 54.0185 79.1486 53.4077C78.9119 52.7921 78.5615 52.3139 78.0975 51.973C77.6335 51.6274 77.0605 51.4545 76.3787 51.4545C75.6685 51.4545 75.0766 51.6368 74.6032 52.0014C74.1344 52.3613 73.7817 52.8513 73.5449 53.4716C73.3129 54.0871 73.1969 54.7784 73.1969 55.5455C73.1969 56.322 73.3153 57.0275 73.552 57.6619C73.7935 58.2917 74.1486 58.7936 74.6174 59.1676C75.0909 59.5369 75.678 59.7216 76.3787 59.7216Z" fill="#5B5B5B"/>
<path d="M28.8414 61V46.4545H33.9267C34.9399 46.4545 35.7756 46.6297 36.4338 46.9801C37.0919 47.3258 37.582 47.7921 37.9039 48.3793C38.2259 48.9616 38.3869 49.608 38.3869 50.3182C38.3869 50.9432 38.2756 51.4593 38.0531 51.8665C37.8353 52.2737 37.5465 52.5956 37.1866 52.8324C36.8315 53.0691 36.4456 53.2443 36.0289 53.358V53.5C36.474 53.5284 36.9215 53.6847 37.3713 53.9688C37.8211 54.2528 38.1975 54.66 38.5005 55.1903C38.8036 55.7206 38.9551 56.3693 38.9551 57.1364C38.9551 57.8655 38.7894 58.5213 38.4579 59.1037C38.1265 59.6861 37.6033 60.1477 36.8883 60.4886C36.1734 60.8295 35.243 61 34.0971 61H28.8414ZM30.6028 59.4375H34.0971C35.2477 59.4375 36.0645 59.215 36.5474 58.7699C37.0351 58.3201 37.2789 57.7756 37.2789 57.1364C37.2789 56.6439 37.1535 56.1894 36.9025 55.7727C36.6516 55.3513 36.2941 55.0152 35.8301 54.7642C35.3661 54.5085 34.8168 54.3807 34.1824 54.3807H30.6028V59.4375ZM30.6028 52.8466H33.8699C34.4002 52.8466 34.8784 52.7424 35.3045 52.5341C35.7354 52.3258 36.0763 52.0322 36.3272 51.6534C36.5829 51.2746 36.7108 50.8295 36.7108 50.3182C36.7108 49.679 36.4882 49.1368 36.0431 48.6918C35.5981 48.242 34.8926 48.017 33.9267 48.017H30.6028V52.8466ZM41.622 61V50.0909H43.2413V51.7386H43.3549C43.5538 51.1989 43.9136 50.7609 44.4345 50.4247C44.9553 50.0885 45.5424 49.9205 46.1958 49.9205C46.319 49.9205 46.4728 49.9228 46.6575 49.9276C46.8422 49.9323 46.9818 49.9394 47.0765 49.9489V51.6534C47.0197 51.6392 46.8895 51.6179 46.6859 51.5895C46.487 51.5563 46.2763 51.5398 46.0538 51.5398C45.5235 51.5398 45.05 51.651 44.6333 51.8736C44.2214 52.0914 43.8947 52.3944 43.6532 52.7827C43.4165 53.1662 43.2981 53.6042 43.2981 54.0966V61H41.622ZM52.2736 61.2557C51.5823 61.2557 50.955 61.1255 50.3915 60.8651C49.8281 60.5999 49.3806 60.2188 49.0492 59.7216C48.7177 59.2197 48.552 58.6136 48.552 57.9034C48.552 57.2784 48.6751 56.7718 48.9213 56.3835C49.1676 55.9905 49.4966 55.6828 49.9086 55.4602C50.3205 55.2377 50.775 55.072 51.2722 54.9631C51.7741 54.8494 52.2783 54.7595 52.785 54.6932C53.4479 54.608 53.9853 54.544 54.3972 54.5014C54.8139 54.4541 55.1169 54.3759 55.3063 54.267C55.5004 54.1581 55.5975 53.9687 55.5975 53.6989V53.642C55.5975 52.9413 55.4057 52.3968 55.0222 52.0085C54.6434 51.6203 54.0681 51.4261 53.2963 51.4261C52.4962 51.4261 51.8688 51.6013 51.4142 51.9517C50.9597 52.3021 50.6401 52.6761 50.4554 53.0739L48.8645 52.5057C49.1486 51.8428 49.5274 51.3267 50.0009 50.9574C50.4791 50.5833 50.9999 50.3229 51.5634 50.1761C52.1316 50.0246 52.6903 49.9489 53.2395 49.9489C53.5899 49.9489 53.9924 49.9915 54.4469 50.0767C54.9062 50.1572 55.3489 50.3253 55.775 50.581C56.2059 50.8366 56.5634 51.2225 56.8475 51.7386C57.1316 52.2547 57.2736 52.946 57.2736 53.8125V61H55.5975V59.5227H55.5123C55.3986 59.7595 55.2092 60.0128 54.9441 60.2827C54.6789 60.5526 54.3262 60.7822 53.8858 60.9716C53.4455 61.161 52.9081 61.2557 52.2736 61.2557ZM52.5293 59.75C53.1922 59.75 53.7509 59.6198 54.2054 59.3594C54.6647 59.099 55.0104 58.7628 55.2424 58.3509C55.4791 57.9389 55.5975 57.5057 55.5975 57.0511V55.517C55.5265 55.6023 55.3702 55.6804 55.1287 55.7514C54.892 55.8177 54.6174 55.8769 54.3049 55.929C53.9971 55.9763 53.6964 56.0189 53.4029 56.0568C53.1141 56.09 52.8797 56.1184 52.6998 56.142C52.2641 56.1989 51.8569 56.2912 51.4782 56.419C51.1041 56.5421 50.8011 56.7292 50.5691 56.9801C50.3418 57.2263 50.2282 57.5625 50.2282 57.9886C50.2282 58.571 50.4436 59.0114 50.8745 59.3097C51.3101 59.6032 51.8617 59.75 52.5293 59.75ZM62.0091 54.4375V61H60.3329V50.0909H61.9522V51.7955H62.0943C62.35 51.2415 62.7382 50.7964 63.2591 50.4602C63.7799 50.1193 64.4522 49.9489 65.2761 49.9489C66.0147 49.9489 66.661 50.1004 67.215 50.4034C67.769 50.7017 68.1999 51.1562 68.5076 51.767C68.8154 52.3731 68.9693 53.1402 68.9693 54.0682V61H67.2931V54.1818C67.2931 53.3248 67.0706 52.6572 66.6255 52.179C66.1805 51.696 65.5697 51.4545 64.7931 51.4545C64.2581 51.4545 63.7799 51.5705 63.3585 51.8026C62.9418 52.0346 62.6127 52.3731 62.3713 52.8182C62.1298 53.2633 62.0091 53.803 62.0091 54.4375ZM76.1515 61.2273C75.2424 61.2273 74.4398 60.9976 73.7438 60.5384C73.0478 60.0743 72.5033 59.4209 72.1103 58.5781C71.7173 57.7306 71.5208 56.7292 71.5208 55.5739C71.5208 54.428 71.7173 53.4337 72.1103 52.5909C72.5033 51.7481 73.0501 51.0971 73.7509 50.6378C74.4516 50.1785 75.2613 49.9489 76.1799 49.9489C76.8901 49.9489 77.4512 50.0672 77.8631 50.304C78.2798 50.536 78.597 50.8011 78.8148 51.0994C79.0373 51.393 79.2102 51.6345 79.3333 51.8239H79.4753V46.4545H81.1515V61H79.5321V59.3239H79.3333C79.2102 59.5227 79.035 59.7737 78.8077 60.0767C78.5804 60.375 78.2561 60.6425 77.8347 60.8793C77.4133 61.1113 76.8522 61.2273 76.1515 61.2273ZM76.3787 59.7216C77.0511 59.7216 77.6193 59.5464 78.0833 59.196C78.5473 58.8409 78.9 58.3509 79.1415 57.7259C79.383 57.0961 79.5037 56.3693 79.5037 55.5455C79.5037 54.7311 79.3854 54.0185 79.1486 53.4077C78.9119 52.7921 78.5615 52.3139 78.0975 51.973C77.6335 51.6274 77.0605 51.4545 76.3787 51.4545C75.6685 51.4545 75.0766 51.6368 74.6032 52.0014C74.1344 52.3613 73.7817 52.8513 73.5449 53.4716C73.3129 54.0871 73.1969 54.7784 73.1969 55.5455C73.1969 56.322 73.3153 57.0275 73.552 57.6619C73.7935 58.2917 74.1486 58.7936 74.6174 59.1676C75.0909 59.5369 75.678 59.7216 76.3787 59.7216Z" fill="black"/>
<path d="M333.663 51H331.902C331.798 50.4934 331.615 50.0483 331.355 49.6648C331.099 49.2812 330.787 48.9593 330.417 48.6989C330.053 48.4337 329.648 48.2348 329.203 48.1023C328.758 47.9697 328.294 47.9034 327.811 47.9034C326.93 47.9034 326.132 48.1259 325.417 48.571C324.707 49.0161 324.141 49.6719 323.72 50.5384C323.303 51.4048 323.095 52.4678 323.095 53.7273C323.095 54.9867 323.303 56.0497 323.72 56.9162C324.141 57.7827 324.707 58.4384 325.417 58.8835C326.132 59.3286 326.93 59.5511 327.811 59.5511C328.294 59.5511 328.758 59.4848 329.203 59.3523C329.648 59.2197 330.053 59.0232 330.417 58.7628C330.787 58.4976 331.099 58.1733 331.355 57.7898C331.615 57.4015 331.798 56.9564 331.902 56.4545H333.663C333.531 57.1979 333.289 57.8632 332.939 58.4503C332.588 59.0374 332.153 59.5369 331.632 59.9489C331.111 60.3561 330.526 60.6662 329.878 60.8793C329.234 61.0923 328.545 61.1989 327.811 61.1989C326.57 61.1989 325.467 60.8958 324.501 60.2898C323.535 59.6837 322.775 58.822 322.221 57.7045C321.667 56.5871 321.39 55.2614 321.39 53.7273C321.39 52.1932 321.667 50.8674 322.221 49.75C322.775 48.6326 323.535 47.7708 324.501 47.1648C325.467 46.5587 326.57 46.2557 327.811 46.2557C328.545 46.2557 329.234 46.3622 329.878 46.5753C330.526 46.7884 331.111 47.1009 331.632 47.5128C332.153 47.92 332.588 48.4171 332.939 49.0043C333.289 49.5866 333.531 50.2519 333.663 51ZM340.714 61.2273C339.729 61.2273 338.865 60.9929 338.122 60.5241C337.383 60.0554 336.805 59.3996 336.389 58.5568C335.977 57.714 335.771 56.7292 335.771 55.6023C335.771 54.4659 335.977 53.474 336.389 52.6264C336.805 51.7789 337.383 51.1207 338.122 50.652C338.865 50.1832 339.729 49.9489 340.714 49.9489C341.699 49.9489 342.561 50.1832 343.299 50.652C344.043 51.1207 344.62 51.7789 345.032 52.6264C345.449 53.474 345.657 54.4659 345.657 55.6023C345.657 56.7292 345.449 57.714 345.032 58.5568C344.62 59.3996 344.043 60.0554 343.299 60.5241C342.561 60.9929 341.699 61.2273 340.714 61.2273ZM340.714 59.7216C341.462 59.7216 342.078 59.5298 342.561 59.1463C343.044 58.7628 343.401 58.2585 343.633 57.6335C343.865 57.0085 343.981 56.3314 343.981 55.6023C343.981 54.8731 343.865 54.1937 343.633 53.5639C343.401 52.9342 343.044 52.4252 342.561 52.0369C342.078 51.6487 341.462 51.4545 340.714 51.4545C339.966 51.4545 339.35 51.6487 338.867 52.0369C338.384 52.4252 338.027 52.9342 337.795 53.5639C337.563 54.1937 337.447 54.8731 337.447 55.6023C337.447 56.3314 337.563 57.0085 337.795 57.6335C338.027 58.2585 338.384 58.7628 338.867 59.1463C339.35 59.5298 339.966 59.7216 340.714 59.7216ZM349.892 46.4545V61H348.216V46.4545H349.892ZM357.394 61.2273C356.409 61.2273 355.545 60.9929 354.801 60.5241C354.063 60.0554 353.485 59.3996 353.068 58.5568C352.656 57.714 352.45 56.7292 352.45 55.6023C352.45 54.4659 352.656 53.474 353.068 52.6264C353.485 51.7789 354.063 51.1207 354.801 50.652C355.545 50.1832 356.409 49.9489 357.394 49.9489C358.378 49.9489 359.24 50.1832 359.979 50.652C360.722 51.1207 361.3 51.7789 361.712 52.6264C362.128 53.474 362.337 54.4659 362.337 55.6023C362.337 56.7292 362.128 57.714 361.712 58.5568C361.3 59.3996 360.722 60.0554 359.979 60.5241C359.24 60.9929 358.378 61.2273 357.394 61.2273ZM357.394 59.7216C358.142 59.7216 358.757 59.5298 359.24 59.1463C359.723 58.7628 360.081 58.2585 360.313 57.6335C360.545 57.0085 360.661 56.3314 360.661 55.6023C360.661 54.8731 360.545 54.1937 360.313 53.5639C360.081 52.9342 359.723 52.4252 359.24 52.0369C358.757 51.6487 358.142 51.4545 357.394 51.4545C356.646 51.4545 356.03 51.6487 355.547 52.0369C355.064 52.4252 354.707 52.9342 354.475 53.5639C354.243 54.1937 354.127 54.8731 354.127 55.6023C354.127 56.3314 354.243 57.0085 354.475 57.6335C354.707 58.2585 355.064 58.7628 355.547 59.1463C356.03 59.5298 356.646 59.7216 357.394 59.7216ZM364.895 61V50.0909H366.515V51.7386H366.628C366.827 51.1989 367.187 50.7609 367.708 50.4247C368.229 50.0885 368.816 49.9205 369.469 49.9205C369.592 49.9205 369.746 49.9228 369.931 49.9276C370.116 49.9323 370.255 49.9394 370.35 49.9489V51.6534C370.293 51.6392 370.163 51.6179 369.959 51.5895C369.76 51.5563 369.55 51.5398 369.327 51.5398C368.797 51.5398 368.323 51.651 367.907 51.8736C367.495 52.0914 367.168 52.3944 366.927 52.7827C366.69 53.1662 366.572 53.6042 366.572 54.0966V61H364.895Z" fill="#5B5B5B"/>
<path d="M333.663 51H331.902C331.798 50.4934 331.615 50.0483 331.355 49.6648C331.099 49.2812 330.787 48.9593 330.417 48.6989C330.053 48.4337 329.648 48.2348 329.203 48.1023C328.758 47.9697 328.294 47.9034 327.811 47.9034C326.93 47.9034 326.132 48.1259 325.417 48.571C324.707 49.0161 324.141 49.6719 323.72 50.5384C323.303 51.4048 323.095 52.4678 323.095 53.7273C323.095 54.9867 323.303 56.0497 323.72 56.9162C324.141 57.7827 324.707 58.4384 325.417 58.8835C326.132 59.3286 326.93 59.5511 327.811 59.5511C328.294 59.5511 328.758 59.4848 329.203 59.3523C329.648 59.2197 330.053 59.0232 330.417 58.7628C330.787 58.4976 331.099 58.1733 331.355 57.7898C331.615 57.4015 331.798 56.9564 331.902 56.4545H333.663C333.531 57.1979 333.289 57.8632 332.939 58.4503C332.588 59.0374 332.153 59.5369 331.632 59.9489C331.111 60.3561 330.526 60.6662 329.878 60.8793C329.234 61.0923 328.545 61.1989 327.811 61.1989C326.57 61.1989 325.467 60.8958 324.501 60.2898C323.535 59.6837 322.775 58.822 322.221 57.7045C321.667 56.5871 321.39 55.2614 321.39 53.7273C321.39 52.1932 321.667 50.8674 322.221 49.75C322.775 48.6326 323.535 47.7708 324.501 47.1648C325.467 46.5587 326.57 46.2557 327.811 46.2557C328.545 46.2557 329.234 46.3622 329.878 46.5753C330.526 46.7884 331.111 47.1009 331.632 47.5128C332.153 47.92 332.588 48.4171 332.939 49.0043C333.289 49.5866 333.531 50.2519 333.663 51ZM340.714 61.2273C339.729 61.2273 338.865 60.9929 338.122 60.5241C337.383 60.0554 336.805 59.3996 336.389 58.5568C335.977 57.714 335.771 56.7292 335.771 55.6023C335.771 54.4659 335.977 53.474 336.389 52.6264C336.805 51.7789 337.383 51.1207 338.122 50.652C338.865 50.1832 339.729 49.9489 340.714 49.9489C341.699 49.9489 342.561 50.1832 343.299 50.652C344.043 51.1207 344.62 51.7789 345.032 52.6264C345.449 53.474 345.657 54.4659 345.657 55.6023C345.657 56.7292 345.449 57.714 345.032 58.5568C344.62 59.3996 344.043 60.0554 343.299 60.5241C342.561 60.9929 341.699 61.2273 340.714 61.2273ZM340.714 59.7216C341.462 59.7216 342.078 59.5298 342.561 59.1463C343.044 58.7628 343.401 58.2585 343.633 57.6335C343.865 57.0085 343.981 56.3314 343.981 55.6023C343.981 54.8731 343.865 54.1937 343.633 53.5639C343.401 52.9342 343.044 52.4252 342.561 52.0369C342.078 51.6487 341.462 51.4545 340.714 51.4545C339.966 51.4545 339.35 51.6487 338.867 52.0369C338.384 52.4252 338.027 52.9342 337.795 53.5639C337.563 54.1937 337.447 54.8731 337.447 55.6023C337.447 56.3314 337.563 57.0085 337.795 57.6335C338.027 58.2585 338.384 58.7628 338.867 59.1463C339.35 59.5298 339.966 59.7216 340.714 59.7216ZM349.892 46.4545V61H348.216V46.4545H349.892ZM357.394 61.2273C356.409 61.2273 355.545 60.9929 354.801 60.5241C354.063 60.0554 353.485 59.3996 353.068 58.5568C352.656 57.714 352.45 56.7292 352.45 55.6023C352.45 54.4659 352.656 53.474 353.068 52.6264C353.485 51.7789 354.063 51.1207 354.801 50.652C355.545 50.1832 356.409 49.9489 357.394 49.9489C358.378 49.9489 359.24 50.1832 359.979 50.652C360.722 51.1207 361.3 51.7789 361.712 52.6264C362.128 53.474 362.337 54.4659 362.337 55.6023C362.337 56.7292 362.128 57.714 361.712 58.5568C361.3 59.3996 360.722 60.0554 359.979 60.5241C359.24 60.9929 358.378 61.2273 357.394 61.2273ZM357.394 59.7216C358.142 59.7216 358.757 59.5298 359.24 59.1463C359.723 58.7628 360.081 58.2585 360.313 57.6335C360.545 57.0085 360.661 56.3314 360.661 55.6023C360.661 54.8731 360.545 54.1937 360.313 53.5639C360.081 52.9342 359.723 52.4252 359.24 52.0369C358.757 51.6487 358.142 51.4545 357.394 51.4545C356.646 51.4545 356.03 51.6487 355.547 52.0369C355.064 52.4252 354.707 52.9342 354.475 53.5639C354.243 54.1937 354.127 54.8731 354.127 55.6023C354.127 56.3314 354.243 57.0085 354.475 57.6335C354.707 58.2585 355.064 58.7628 355.547 59.1463C356.03 59.5298 356.646 59.7216 357.394 59.7216ZM364.895 61V50.0909H366.515V51.7386H366.628C366.827 51.1989 367.187 50.7609 367.708 50.4247C368.229 50.0885 368.816 49.9205 369.469 49.9205C369.592 49.9205 369.746 49.9228 369.931 49.9276C370.116 49.9323 370.255 49.9394 370.35 49.9489V51.6534C370.293 51.6392 370.163 51.6179 369.959 51.5895C369.76 51.5563 369.55 51.5398 369.327 51.5398C368.797 51.5398 368.323 51.651 367.907 51.8736C367.495 52.0914 367.168 52.3944 366.927 52.7827C366.69 53.1662 366.572 53.6042 366.572 54.0966V61H364.895Z" fill="#5B5B5B"/>
<path d="M333.663 51H331.902C331.798 50.4934 331.615 50.0483 331.355 49.6648C331.099 49.2812 330.787 48.9593 330.417 48.6989C330.053 48.4337 329.648 48.2348 329.203 48.1023C328.758 47.9697 328.294 47.9034 327.811 47.9034C326.93 47.9034 326.132 48.1259 325.417 48.571C324.707 49.0161 324.141 49.6719 323.72 50.5384C323.303 51.4048 323.095 52.4678 323.095 53.7273C323.095 54.9867 323.303 56.0497 323.72 56.9162C324.141 57.7827 324.707 58.4384 325.417 58.8835C326.132 59.3286 326.93 59.5511 327.811 59.5511C328.294 59.5511 328.758 59.4848 329.203 59.3523C329.648 59.2197 330.053 59.0232 330.417 58.7628C330.787 58.4976 331.099 58.1733 331.355 57.7898C331.615 57.4015 331.798 56.9564 331.902 56.4545H333.663C333.531 57.1979 333.289 57.8632 332.939 58.4503C332.588 59.0374 332.153 59.5369 331.632 59.9489C331.111 60.3561 330.526 60.6662 329.878 60.8793C329.234 61.0923 328.545 61.1989 327.811 61.1989C326.57 61.1989 325.467 60.8958 324.501 60.2898C323.535 59.6837 322.775 58.822 322.221 57.7045C321.667 56.5871 321.39 55.2614 321.39 53.7273C321.39 52.1932 321.667 50.8674 322.221 49.75C322.775 48.6326 323.535 47.7708 324.501 47.1648C325.467 46.5587 326.57 46.2557 327.811 46.2557C328.545 46.2557 329.234 46.3622 329.878 46.5753C330.526 46.7884 331.111 47.1009 331.632 47.5128C332.153 47.92 332.588 48.4171 332.939 49.0043C333.289 49.5866 333.531 50.2519 333.663 51ZM340.714 61.2273C339.729 61.2273 338.865 60.9929 338.122 60.5241C337.383 60.0554 336.805 59.3996 336.389 58.5568C335.977 57.714 335.771 56.7292 335.771 55.6023C335.771 54.4659 335.977 53.474 336.389 52.6264C336.805 51.7789 337.383 51.1207 338.122 50.652C338.865 50.1832 339.729 49.9489 340.714 49.9489C341.699 49.9489 342.561 50.1832 343.299 50.652C344.043 51.1207 344.62 51.7789 345.032 52.6264C345.449 53.474 345.657 54.4659 345.657 55.6023C345.657 56.7292 345.449 57.714 345.032 58.5568C344.62 59.3996 344.043 60.0554 343.299 60.5241C342.561 60.9929 341.699 61.2273 340.714 61.2273ZM340.714 59.7216C341.462 59.7216 342.078 59.5298 342.561 59.1463C343.044 58.7628 343.401 58.2585 343.633 57.6335C343.865 57.0085 343.981 56.3314 343.981 55.6023C343.981 54.8731 343.865 54.1937 343.633 53.5639C343.401 52.9342 343.044 52.4252 342.561 52.0369C342.078 51.6487 341.462 51.4545 340.714 51.4545C339.966 51.4545 339.35 51.6487 338.867 52.0369C338.384 52.4252 338.027 52.9342 337.795 53.5639C337.563 54.1937 337.447 54.8731 337.447 55.6023C337.447 56.3314 337.563 57.0085 337.795 57.6335C338.027 58.2585 338.384 58.7628 338.867 59.1463C339.35 59.5298 339.966 59.7216 340.714 59.7216ZM349.892 46.4545V61H348.216V46.4545H349.892ZM357.394 61.2273C356.409 61.2273 355.545 60.9929 354.801 60.5241C354.063 60.0554 353.485 59.3996 353.068 58.5568C352.656 57.714 352.45 56.7292 352.45 55.6023C352.45 54.4659 352.656 53.474 353.068 52.6264C353.485 51.7789 354.063 51.1207 354.801 50.652C355.545 50.1832 356.409 49.9489 357.394 49.9489C358.378 49.9489 359.24 50.1832 359.979 50.652C360.722 51.1207 361.3 51.7789 361.712 52.6264C362.128 53.474 362.337 54.4659 362.337 55.6023C362.337 56.7292 362.128 57.714 361.712 58.5568C361.3 59.3996 360.722 60.0554 359.979 60.5241C359.24 60.9929 358.378 61.2273 357.394 61.2273ZM357.394 59.7216C358.142 59.7216 358.757 59.5298 359.24 59.1463C359.723 58.7628 360.081 58.2585 360.313 57.6335C360.545 57.0085 360.661 56.3314 360.661 55.6023C360.661 54.8731 360.545 54.1937 360.313 53.5639C360.081 52.9342 359.723 52.4252 359.24 52.0369C358.757 51.6487 358.142 51.4545 357.394 51.4545C356.646 51.4545 356.03 51.6487 355.547 52.0369C355.064 52.4252 354.707 52.9342 354.475 53.5639C354.243 54.1937 354.127 54.8731 354.127 55.6023C354.127 56.3314 354.243 57.0085 354.475 57.6335C354.707 58.2585 355.064 58.7628 355.547 59.1463C356.03 59.5298 356.646 59.7216 357.394 59.7216ZM364.895 61V50.0909H366.515V51.7386H366.628C366.827 51.1989 367.187 50.7609 367.708 50.4247C368.229 50.0885 368.816 49.9205 369.469 49.9205C369.592 49.9205 369.746 49.9228 369.931 49.9276C370.116 49.9323 370.255 49.9394 370.35 49.9489V51.6534C370.293 51.6392 370.163 51.6179 369.959 51.5895C369.76 51.5563 369.55 51.5398 369.327 51.5398C368.797 51.5398 368.323 51.651 367.907 51.8736C367.495 52.0914 367.168 52.3944 366.927 52.7827C366.69 53.1662 366.572 53.6042 366.572 54.0966V61H364.895Z" fill="black"/>
<defs>
<linearGradient id="paint0_linear_46_2" x1="0" y1="15" x2="385" y2="15" gradientUnits="userSpaceOnUse">
<stop offset="0.635" stop-color="#EE3E93"/>
<stop offset="1" stop-color="#882454"/>
</linearGradient>
<linearGradient id="paint1_linear_46_2" x1="55" y1="35" x2="55" y2="100" gradientUnits="userSpaceOnUse">
<stop stop-color="#EE3E93"/>
<stop offset="0.345" stop-color="#882454"/>
</linearGradient>
<linearGradient id="paint2_linear_46_2" x1="151" y1="35" x2="151" y2="100" gradientUnits="userSpaceOnUse">
<stop stop-color="#EE3E93"/>
<stop offset="1" stop-color="#882454"/>
</linearGradient>
<linearGradient id="paint3_linear_46_2" x1="247" y1="35" x2="247" y2="100" gradientUnits="userSpaceOnUse">
<stop stop-color="#EE3E93"/>
<stop offset="1" stop-color="#882454"/>
</linearGradient>
<linearGradient id="paint4_linear_46_2" x1="345" y1="35" x2="345" y2="100" gradientUnits="userSpaceOnUse">
<stop stop-color="#EE3E93"/>
<stop offset="1" stop-color="#882454" stop-opacity="0.533333"/>
</linearGradient>
</defs>
</svg>
